<?xml version="1.0" encoding="UTF-8"?>
<svg id="Layer_1" xmlns="http://www.w3.org/2000/svg" version="1.1" viewBox="0 0 792 612">
  <!-- Generator: Adobe Illustrator 29.2.1, SVG Export Plug-In . SVG Version: 2.1.0 Build 116)  -->
  <defs>
    <style>
      .st0, .st1, .st2, .st3, .st4, .st5 {
        stroke-miterlimit: 10;
      }

      .st0, .st2 {
        stroke: #f0e911;
      }

      .st0, .st6, .st3, .st4 {
        fill: #231f20;
      }

      .st0, .st4, .st5 {
        stroke-width: 2px;
      }

      .st1, .st2, .st3 {
        stroke-width: 5px;
      }

      .st1, .st7, .st5 {
        fill: #fff;
      }

      .st1, .st5 {
        stroke: #fff;
      }

      .st2, .st8 {
        fill: #f0e911;
      }

      .st3, .st4 {
        stroke: #231f20;
      }

      .st9 {
        fill: none;
      }
    </style>
  </defs>
  <g>
    <rect class="st9" x="13" y="257.1" width="576.8" height="182.9"/>
    <path class="st3" d="M215.4,258.2l.2.9v52.3c.2,1.6,1,2.7,2.6,3.4.2.2.9.3,2.1.4.9.1,1.4.5,1.6,1.1.1.4.2.7.2.8,0,.4,0,.7-.3,1.1-.4.5-.9.8-1.4.9-2.9,0-5.3-1.1-7-3.3-1.1-1.5-1.7-3.5-1.7-6.2v-50.9c.2-.8.7-1.3,1.6-1.5,1,0,1.7.4,2.1,1.1Z"/>
    <path class="st3" d="M281.9,285.5c.8,1.8,1.1,4.1,1.1,6.8s0,1.2,0,2.3v3.6c-.1.6-.4,1.1-.8,1.3l-.9.3h-23.9v6.3c0,2.9.8,5.2,2.3,6.7,1.5,1.5,3.2,2.3,5.2,2.3h16.8c.5.1.9.4,1.1.9.2.5.4.9.4,1.2s0,.4-.2.7c-.3.6-.6.9-1,1l-1,.2h-17.2c-2.8-.3-5.2-1.5-7.3-3.7-2-2.2-3-4.6-3-7.4v-17.7c0-2.4.7-4.7,2.2-6.9,1.5-2.2,3.4-3.9,5.7-5.2,1.9-1.1,4.2-1.6,6.8-1.6s5.4.7,7.7,2.1c2.6,1.6,4.6,3.8,6,6.8ZM278.2,287c-1.4-3.1-3.6-5.1-6.5-6.1-1.1-.4-2.3-.5-3.4-.5-3.1,0-5.8,1.2-8,3.5-2,2.1-3,5.3-3,9.4s0,1.9,0,2.5h21.7v-4c0-1.9-.3-3.5-.9-4.8Z"/>
    <path class="st3" d="M331.7,276.6c2.5,0,4.9.9,7,2.6s3.6,3.9,4.4,6.3c.5,1.5.7,3.2.7,5.2v26.9c-.2.5-.5.9-1,1.2l-.7.2h-17.5c-2.9-.4-5.4-1.6-7.4-3.9-2-2.2-3-4.8-3-7.7s.5-4,1.6-5.8c2.3-3.8,5.7-5.7,10.3-5.7h13.8v-4.6c0-3.7-.9-6.4-2.7-8.1-2-1.8-4-2.7-6.1-2.7h-12.2c-.5-.2-.9-.5-1.1-.9-.2-.4-.3-.8-.3-1,0-.5.1-1,.4-1.4.3-.2.7-.4,1.3-.5h12.5ZM339.9,315v-15.3h-14.8c-2.6.3-4.5,1.5-5.8,3.7-.8,1.3-1.1,2.6-1.1,4s.6,3.5,1.9,5c1.3,1.5,2.8,2.4,4.7,2.6h15.1Z"/>
    <path class="st3" d="M396.8,257.7c.5.2.7.8.7,1.5s-.4,1.6-1.2,1.9c-3.1,0-5.7.9-7.8,2.7-2.2,1.8-3.4,4.2-3.7,7.1,0,.7,0,1.5,0,2.5v3.1h11.4c.5.1.9.5,1.2,1,.1.4.2.7.2.9,0,.9-.4,1.6-1.3,2h-11.5v37.1c-.2.7-.6,1.1-1.1,1.3-.2.1-.5.2-.7.2-1,0-1.7-.5-2-1.5v-37.1h-5.2c-.6-.2-1-.6-1.1-1v-.8c0-.7.2-1.3.5-1.7l.9-.4h4.9v-2.6c0-5.5,1.6-9.7,4.7-12.7,2.9-2.6,6.4-4,10.7-4l.6.4Z"/>
  </g>
  <rect class="st8" x="65.9" y="24.3" width="412.8" height="174.5"/>
  <path id="White_Leaf" class="st7" d="M171.5,67c-11-7.1-28.5-7.5-39.2-11.9-10.7-4.4-24.3-9.3-26.2-7.5s3.7,9.4,4.7,26.2-8.7,31.9,0,41.6c8.7,9.7,52-1.9,49.6,4.9s-38.2,13.2-38.2,16.2-.4,3.5,1.5,3.5c1.9,0,16.4-4.4,26.1-9s14.4-8.8,15-11.6c.7-2.8-2,0,4.5-8.9,6.5-8.9,19.7-33.4,2.2-43.5ZM162.1,116c-1-.3-2.5-14.4-11.6-23.1-9.1-8.7-19-12.7-23.6-17.4-4.6-4.7-16.6-22.7-15.6-23.5,1-.7,12.7,18.9,22.2,23.5,9.5,4.6,18.3,6.6,23.9,15.7s6.1,25.1,4.7,24.8Z"/>
  <g>
    <rect class="st9" x="15.7" y="338.3" width="576.8" height="182.9"/>
    <path class="st4" d="M199.3,338.8l8,24.1,8.1-24.2c.2-.2.4-.4.6-.4.5,0,.8.2,1,.5v.4s-8.9,26.8-8.9,26.8c-.2.3-.4.4-.6.4-.3,0-.5,0-.7-.2l-.3-.3-8.8-26.7c0-.4.1-.7.4-.9.2,0,.4,0,.7,0,.2,0,.4.2.5.4Z"/>
    <path class="st4" d="M232.9,338.6l.2.4,8.8,26.7c0,.4-.1.7-.4.8-.1,0-.3.1-.4.1s-.3,0-.4,0c-.3-.1-.4-.3-.5-.6l-2.2-6.7h-11.5l-2.3,6.9c-.2.3-.4.4-.6.4-.5,0-.8-.2-1-.5v-.4c0,0,8.8-26.8,8.8-26.8.1-.2.3-.3.6-.4.4,0,.6,0,.8.2ZM227.2,357.4h10.2l-5.1-15.4-5.1,15.4Z"/>
    <path class="st4" d="M258.9,338.4c1.5,0,3,.5,4.3,1.6,1.4,1.1,2.3,2.4,2.8,3.9.3.9.4,1.8.4,2.7,0,1.7-.5,3.3-1.5,4.8-1,1.4-2.3,2.4-4,3v.2s5.5,10.9,5.5,10.9c0,0,0,.1,0,.2,0,.5-.3.8-.8.9-.3,0-.5,0-.7-.2l-.3-.4-5.6-11.2h-7.4v11.2c-.1.4-.4.6-.8.6s-.4,0-.5-.1c-.2-.1-.4-.3-.5-.6v-26.8c0-.4.3-.6.7-.6h8.2ZM258.9,340.2h-7.1v12.9h6.5c2,0,3.6-.8,5-2.4,1-1.1,1.4-2.5,1.4-4.1s-.2-1.6-.5-2.5c-.5-1.1-1.2-2-2.2-2.8-1-.8-2-1.1-3.1-1.1Z"/>
    <path class="st4" d="M278.7,338.8v.3c0,0,0,26.8,0,26.8,0,.2-.2.3-.4.5-.2,0-.3.1-.5.1s-.2,0-.3,0c-.4-.1-.5-.5-.5-1.1v-26.4c0-.2.2-.4.4-.6.1,0,.2-.1.4-.1.4,0,.7.2.8.5Z"/>
    <path class="st4" d="M304.9,342.9c.6,1.2.9,2.3.9,3.5v12.7c0,1.5-.5,2.9-1.6,4.2-1.1,1.3-2.3,2.3-3.8,2.8-.9.3-1.9.5-2.8.5-2.1,0-4-.7-5.5-2.1-1.8-1.6-2.7-3.6-2.7-5.9v-12.5c0-1.4.5-2.8,1.4-4.1.9-1.3,2.1-2.2,3.5-2.8,1-.4,2.1-.6,3.2-.6,2.2,0,4.1.8,5.7,2.3.7.6,1.2,1.4,1.6,2.2ZM303.3,343.7c-.4-.8-1-1.5-1.6-2-1.2-1-2.6-1.5-4.2-1.5s-1.5.1-2.3.4c-1.1.4-2,1.1-2.8,2.1s-1.2,2.1-1.3,3.2v12.6c0,1.7.7,3.1,2,4.4s2.8,1.8,4.5,1.8,1.4-.1,2.2-.4c1.1-.3,2-1,2.8-2,.8-1,1.3-2.1,1.4-3.2v-13.3c0-.7-.2-1.4-.6-2.2Z"/>
    <path class="st4" d="M357.1,338.4c.4,0,.6.4.6.8s0,.4-.2.6c-.2.2-.5.3-1,.3h-7.6c-1.1,0-2.1.4-3.1,1.1-1,.8-1.7,1.7-2.2,2.8-.3.8-.5,1.6-.5,2.2v12.7c0,1.1.4,2.2,1.2,3.2.8,1,1.8,1.7,2.9,2.1.8.3,1.6.4,2.4.4h6.4v-12.9h-3.7c-.2,0-.4-.2-.6-.4,0-.2,0-.3,0-.4,0-.4.2-.7.5-.8h.4c0,0,4.6,0,4.6,0,.3,0,.5.2.6.5v.4c0,0,0,14.9,0,14.9,0,.2-.2.4-.4.6h-.3c0,0-8.1,0-8.1,0-1.5,0-2.9-.5-4.2-1.5-1.3-1-2.3-2.3-2.8-3.7-.3-.9-.5-1.9-.5-2.8v-12.6c0-1.4.5-2.8,1.4-4.1,1-1.3,2.1-2.2,3.6-2.8,1.1-.5,2.1-.7,2.8-.7h8Z"/>
    <path class="st4" d="M376.1,338.4c1.5,0,3,.5,4.3,1.6,1.4,1.1,2.3,2.4,2.8,3.9.3.9.4,1.8.4,2.7,0,2.2-.7,4.1-2.2,5.6-1.7,1.8-3.8,2.7-6.4,2.7h-6.1v11.2c-.1.4-.4.6-.8.6s-.4,0-.5-.1c-.2-.1-.4-.3-.5-.6v-26.8c0-.4.3-.6.7-.6h8.2ZM376.1,340.2h-7.1v12.9h6.5c2,0,3.6-.8,5-2.4,1-1.1,1.4-2.5,1.4-4.1s-.2-1.6-.5-2.5c-.5-1.1-1.2-2-2.2-2.8-1-.8-2-1.1-3.1-1.1Z"/>
    <path class="st4" d="M405.2,339.7c.5.2.8.4.9.7,0,0,0,.1,0,.3,0,.3,0,.5-.2.7-.1.2-.3.3-.6.3s-.4,0-.7-.2-.5-.2-.6-.2c-2.3-.7-4.2-1.1-6-1.1h-.6c-.9,0-1.7.4-2.5,1-.8.6-1.3,1.3-1.7,2.1-.2.6-.4,1.2-.4,1.9,0,1.2.3,2.2,1,3.1.4.6.9,1.1,1.5,1.4l8.9,4.5c2.2,1.4,3.3,3.3,3.3,5.8s-.5,2.8-1.4,4.1c-.9,1.3-2.1,2.1-3.5,2.4-.6.2-1.4.2-2.1.2-1.6,0-3.5-.4-5.6-1.2-1.4-.6-2.7-1.2-3.7-2-.1-.2-.2-.4-.2-.7.1-.3.3-.5.5-.6,0,0,.2,0,.3,0,.3,0,.7.2,1.1.5.5.3.8.5,1,.6,2.4,1.2,4.6,1.8,6.7,1.8s.5,0,.8,0c.8,0,1.6-.4,2.3-1,.7-.6,1.3-1.3,1.5-2.1.2-.6.4-1.3.4-1.9,0-1.2-.4-2.3-1.2-3.2-.5-.6-1.1-1.1-1.8-1.4l-8.5-4.2c-2.1-1.4-3.2-3.3-3.2-5.8s.5-2.9,1.4-4.1,2.2-2.1,3.6-2.4c.7-.2,1.4-.2,2-.2s1.9.1,3.2.3c1.3.2,2.6.6,3.8,1.1Z"/>
  </g>
  <path id="Black_Leaf" class="st6" d="M168.4,267.2c-11-7.1-28.5-7.5-39.2-11.9-10.7-4.4-24.3-9.3-26.2-7.5s3.7,9.4,4.7,26.2-8.7,31.9,0,41.6c8.7,9.7,52-1.9,49.6,4.9s-38.2,13.2-38.2,16.2-.4,3.5,1.5,3.5c1.9,0,16.4-4.4,26.1-9s14.4-8.8,15-11.6c.7-2.8-2,0,4.5-8.9,6.5-8.9,19.7-33.4,2.2-43.5ZM159,316.2c-1-.3-2.5-14.4-11.6-23.1-9.1-8.7-19-12.7-23.6-17.4-4.6-4.7-16.6-22.7-15.6-23.5,1-.7,12.7,18.9,22.2,23.5,9.5,4.6,18.3,6.6,23.9,15.7s6.1,25.1,4.7,24.8Z"/>
  <g>
    <rect class="st9" x="11.6" y="57.5" width="576.8" height="182.9"/>
    <path class="st1" d="M214.1,58.5l.2.9v52.3c.2,1.6,1,2.7,2.6,3.4.2.2.9.3,2.1.4.9.1,1.4.5,1.6,1.1.1.4.2.7.2.8,0,.4,0,.7-.3,1.1-.4.5-.9.8-1.4.9-2.9,0-5.3-1.1-7-3.3-1.1-1.5-1.7-3.5-1.7-6.2v-50.9c.2-.8.7-1.3,1.6-1.5,1,0,1.7.4,2.1,1.1Z"/>
    <path class="st1" d="M280.6,85.8c.8,1.8,1.1,4.1,1.1,6.8s0,1.2,0,2.3v3.6c-.1.6-.4,1.1-.8,1.3l-.9.3h-23.9v6.3c0,2.9.8,5.2,2.3,6.7,1.5,1.5,3.2,2.3,5.2,2.3h16.8c.5.1.9.4,1.1.9.2.5.4.9.4,1.2s0,.4-.2.7c-.3.6-.6.9-1,1l-1,.2h-17.2c-2.8-.3-5.2-1.5-7.3-3.7-2-2.2-3-4.6-3-7.4v-17.7c0-2.4.7-4.7,2.2-6.9,1.5-2.2,3.4-3.9,5.7-5.2,1.9-1.1,4.2-1.6,6.8-1.6s5.4.7,7.7,2.1c2.6,1.6,4.6,3.8,6,6.8ZM276.9,87.4c-1.4-3.1-3.6-5.1-6.5-6.1-1.1-.4-2.3-.5-3.4-.5-3.1,0-5.8,1.2-8,3.5-2,2.1-3,5.3-3,9.4s0,1.9,0,2.5h21.7v-4c0-1.9-.3-3.5-.9-4.8Z"/>
    <path class="st1" d="M330.3,76.9c2.5,0,4.9.9,7,2.6s3.6,3.9,4.4,6.3c.5,1.5.7,3.2.7,5.2v26.9c-.2.5-.5.9-1,1.2l-.7.2h-17.5c-2.9-.4-5.4-1.6-7.4-3.9-2-2.2-3-4.8-3-7.7s.5-4,1.6-5.8c2.3-3.8,5.7-5.7,10.3-5.7h13.8v-4.6c0-3.7-.9-6.4-2.7-8.1-2-1.8-4-2.7-6.1-2.7h-12.2c-.5-.2-.9-.5-1.1-.9-.2-.4-.3-.8-.3-1,0-.5.1-1,.4-1.4.3-.2.7-.4,1.3-.5h12.5ZM338.5,115.4v-15.3h-14.8c-2.6.3-4.5,1.5-5.8,3.7-.8,1.3-1.1,2.6-1.1,4s.6,3.5,1.9,5,2.8,2.4,4.7,2.6h15.1Z"/>
    <path class="st1" d="M395.4,58.1c.5.2.7.8.7,1.5s-.4,1.6-1.2,1.9c-3.1,0-5.7.9-7.8,2.7-2.2,1.8-3.4,4.2-3.7,7.1,0,.7,0,1.5,0,2.5v3.1h11.4c.5.1.9.5,1.2,1,.1.4.2.7.2.9,0,.9-.4,1.6-1.3,2h-11.5v37.1c-.2.7-.6,1.1-1.1,1.3-.2.1-.5.2-.7.2-1,0-1.7-.5-2-1.5v-37.1h-5.2c-.6-.2-1-.6-1.1-1v-.8c0-.7.2-1.3.5-1.7l.9-.4h4.9v-2.6c0-5.5,1.6-9.7,4.7-12.7,2.9-2.6,6.4-4,10.7-4l.6.4Z"/>
  </g>
  <g>
    <rect class="st9" x="14.3" y="140.7" width="576.8" height="182.9"/>
    <path class="st5" d="M197.9,141.1l8,24.1,8.1-24.2c.2-.2.4-.4.6-.4.5,0,.8.2,1,.5v.4s-8.9,26.8-8.9,26.8c-.2.3-.4.4-.6.4-.3,0-.5,0-.7-.2l-.3-.3-8.8-26.7c0-.4.1-.7.4-.9.2,0,.4,0,.7,0,.2,0,.4.2.5.4Z"/>
    <path class="st5" d="M231.5,140.9l.2.4,8.8,26.7c0,.4-.1.7-.4.8-.1,0-.3.1-.4.1s-.3,0-.4,0c-.3-.1-.4-.3-.5-.6l-2.2-6.7h-11.5l-2.3,6.9c-.2.3-.4.4-.6.4-.5,0-.8-.2-1-.5v-.4c0,0,8.8-26.8,8.8-26.8.1-.2.3-.3.6-.4.4,0,.6,0,.8.2ZM225.8,159.8h10.2l-5.1-15.4-5.1,15.4Z"/>
    <path class="st5" d="M257.5,140.7c1.5,0,3,.5,4.3,1.6,1.4,1.1,2.3,2.4,2.8,3.9.3.9.4,1.8.4,2.7,0,1.7-.5,3.3-1.5,4.8-1,1.4-2.3,2.4-4,3v.2s5.5,10.9,5.5,10.9c0,0,0,.1,0,.2,0,.5-.3.8-.8.9-.3,0-.5,0-.7-.2l-.3-.4-5.6-11.2h-7.4v11.2c-.1.4-.4.6-.8.6s-.4,0-.5-.1c-.2-.1-.4-.3-.5-.6v-26.8c0-.4.3-.6.7-.6h8.2ZM257.5,142.5h-7.1v12.9h6.5c2,0,3.6-.8,5-2.4,1-1.1,1.4-2.5,1.4-4.1s-.2-1.6-.5-2.5c-.5-1.1-1.2-2-2.2-2.8s-2-1.1-3.1-1.1Z"/>
    <path class="st5" d="M277.4,141.1v.3c0,0,0,26.8,0,26.8,0,.2-.2.3-.4.5-.2,0-.3.1-.5.1s-.2,0-.3,0c-.4-.1-.5-.5-.5-1.1v-26.4c0-.2.2-.4.4-.6.1,0,.2-.1.4-.1.4,0,.7.2.8.5Z"/>
    <path class="st5" d="M303.5,145.2c.6,1.2.9,2.3.9,3.5v12.7c0,1.5-.5,2.9-1.6,4.2-1.1,1.3-2.3,2.3-3.8,2.8-.9.3-1.9.5-2.8.5-2.1,0-4-.7-5.5-2.1-1.8-1.6-2.7-3.6-2.7-5.9v-12.5c0-1.4.5-2.8,1.4-4.1.9-1.3,2.1-2.2,3.5-2.8,1-.4,2.1-.6,3.2-.6,2.2,0,4.1.8,5.7,2.3.7.6,1.2,1.4,1.6,2.2ZM302,146.1c-.4-.8-1-1.5-1.6-2-1.2-1-2.6-1.5-4.2-1.5s-1.5.1-2.3.4c-1.1.4-2,1.1-2.8,2.1-.8,1-1.2,2.1-1.3,3.2v12.6c0,1.7.7,3.1,2,4.4s2.8,1.8,4.5,1.8,1.4-.1,2.2-.4c1.1-.3,2-1,2.8-2,.8-1,1.3-2.1,1.4-3.2v-13.3c0-.7-.2-1.4-.6-2.2Z"/>
    <path class="st5" d="M355.7,140.7c.4,0,.6.4.6.8s0,.4-.2.6c-.2.2-.5.3-1,.3h-7.6c-1.1,0-2.1.4-3.1,1.1s-1.7,1.7-2.2,2.8c-.3.8-.5,1.6-.5,2.2v12.7c0,1.1.4,2.2,1.2,3.2.8,1,1.8,1.7,2.9,2.1.8.3,1.6.4,2.4.4h6.4v-12.9h-3.7c-.2,0-.4-.2-.6-.4,0-.2,0-.3,0-.4,0-.4.2-.7.5-.8h.4c0,0,4.6,0,4.6,0,.3,0,.5.2.6.5v.4c0,0,0,14.9,0,14.9,0,.2-.2.4-.4.6h-.3c0,0-8.1,0-8.1,0-1.5,0-2.9-.5-4.2-1.5-1.3-1-2.3-2.3-2.8-3.7-.3-.9-.5-1.9-.5-2.8v-12.6c0-1.4.5-2.8,1.4-4.1,1-1.3,2.1-2.2,3.6-2.8,1.1-.5,2.1-.7,2.8-.7h8Z"/>
    <path class="st5" d="M374.8,140.7c1.5,0,3,.5,4.3,1.6,1.4,1.1,2.3,2.4,2.8,3.9.3.9.4,1.8.4,2.7,0,2.2-.7,4.1-2.2,5.6-1.7,1.8-3.8,2.7-6.4,2.7h-6.1v11.2c-.1.4-.4.6-.8.6s-.4,0-.5-.1c-.2-.1-.4-.3-.5-.6v-26.8c0-.4.3-.6.7-.6h8.2ZM374.8,142.5h-7.1v12.9h6.5c2,0,3.6-.8,5-2.4,1-1.1,1.4-2.5,1.4-4.1s-.2-1.6-.5-2.5c-.5-1.1-1.2-2-2.2-2.8s-2-1.1-3.1-1.1Z"/>
    <path class="st5" d="M403.9,142.1c.5.2.8.4.9.7,0,0,0,.1,0,.3,0,.3,0,.5-.2.7-.1.2-.3.3-.6.3s-.4,0-.7-.2c-.3-.1-.5-.2-.6-.2-2.3-.7-4.2-1.1-6-1.1h-.6c-.9,0-1.7.4-2.5,1-.8.6-1.3,1.3-1.7,2.1-.2.6-.4,1.2-.4,1.9,0,1.2.3,2.2,1,3.1.4.6.9,1.1,1.5,1.4l8.9,4.5c2.2,1.4,3.3,3.3,3.3,5.8s-.5,2.8-1.4,4.1-2.1,2.1-3.5,2.4c-.6.2-1.4.2-2.1.2-1.6,0-3.5-.4-5.6-1.2-1.4-.6-2.7-1.2-3.7-2-.1-.2-.2-.4-.2-.7.1-.3.3-.5.5-.6,0,0,.2,0,.3,0,.3,0,.7.2,1.1.5.5.3.8.5,1,.6,2.4,1.2,4.6,1.8,6.7,1.8s.5,0,.8,0c.8,0,1.6-.4,2.3-1,.7-.6,1.3-1.3,1.5-2.1.2-.6.4-1.3.4-1.9,0-1.2-.4-2.3-1.2-3.2-.5-.6-1.1-1.1-1.8-1.4l-8.5-4.2c-2.1-1.4-3.2-3.3-3.2-5.8s.5-2.9,1.4-4.1c1-1.3,2.2-2.1,3.6-2.4.7-.2,1.4-.2,2-.2s1.9.1,3.2.3c1.3.2,2.6.6,3.8,1.1Z"/>
  </g>
  <g>
    <rect class="st9" x="8.9" y="439.4" width="576.8" height="182.9"/>
    <path class="st2" d="M211.4,440.4l.2.9v52.3c.2,1.6,1,2.7,2.6,3.4.2.2.9.3,2.1.4.9.1,1.4.5,1.6,1.1.1.4.2.7.2.8,0,.4,0,.7-.3,1.1-.4.5-.9.8-1.4.9-2.9,0-5.3-1.1-7-3.3-1.1-1.5-1.7-3.5-1.7-6.2v-50.9c.2-.8.7-1.3,1.6-1.5,1,0,1.7.4,2.1,1.1Z"/>
    <path class="st2" d="M277.9,467.7c.8,1.8,1.1,4.1,1.1,6.8s0,1.2,0,2.3v3.6c-.1.6-.4,1.1-.8,1.3l-.9.3h-23.9v6.3c0,2.9.8,5.2,2.3,6.7,1.5,1.5,3.2,2.3,5.2,2.3h16.8c.5.1.9.4,1.1.9.2.5.4.9.4,1.2s0,.4-.2.7c-.3.6-.6.9-1,1l-1,.2h-17.2c-2.8-.3-5.2-1.5-7.3-3.7-2-2.2-3-4.6-3-7.4v-17.7c0-2.4.7-4.7,2.2-6.9,1.5-2.2,3.4-3.9,5.7-5.2,1.9-1.1,4.2-1.6,6.8-1.6s5.4.7,7.7,2.1c2.6,1.6,4.6,3.8,6,6.8ZM274.2,469.3c-1.4-3.1-3.6-5.1-6.5-6.1-1.1-.4-2.3-.5-3.4-.5-3.1,0-5.8,1.2-8,3.5-2,2.1-3,5.3-3,9.4s0,1.9,0,2.5h21.7v-4c0-1.9-.3-3.5-.9-4.8Z"/>
    <path class="st2" d="M327.6,458.8c2.5,0,4.9.9,7,2.6s3.6,3.9,4.4,6.3c.5,1.5.7,3.2.7,5.2v26.9c-.2.5-.5.9-1,1.2l-.7.2h-17.5c-2.9-.4-5.4-1.6-7.4-3.9-2-2.2-3-4.8-3-7.7s.5-4,1.6-5.8c2.3-3.8,5.7-5.7,10.3-5.7h13.8v-4.6c0-3.7-.9-6.4-2.7-8.1-2-1.8-4-2.7-6.1-2.7h-12.2c-.5-.2-.9-.5-1.1-.9-.2-.4-.3-.8-.3-1,0-.5.1-1,.4-1.4.3-.2.7-.4,1.3-.5h12.5ZM335.8,497.3v-15.3h-14.8c-2.6.3-4.5,1.5-5.8,3.7-.8,1.3-1.1,2.6-1.1,4s.6,3.5,1.9,5c1.3,1.5,2.8,2.4,4.7,2.6h15.1Z"/>
    <path class="st2" d="M392.7,440c.5.2.7.8.7,1.5s-.4,1.6-1.2,1.9c-3.1,0-5.7.9-7.8,2.7-2.2,1.8-3.4,4.2-3.7,7.1,0,.7,0,1.5,0,2.5v3.1h11.4c.5.1.9.5,1.2,1,.1.4.2.7.2.9,0,.9-.4,1.6-1.3,2h-11.5v37.1c-.2.7-.6,1.1-1.1,1.3-.2.1-.5.2-.7.2-1,0-1.7-.5-2-1.5v-37.1h-5.2c-.6-.2-1-.6-1.1-1v-.8c0-.7.2-1.3.5-1.7l.9-.4h4.9v-2.6c0-5.5,1.6-9.7,4.7-12.7,2.9-2.6,6.4-4,10.7-4l.6.4Z"/>
  </g>
  <g>
    <rect class="st9" x="11.6" y="520.6" width="576.8" height="182.9"/>
    <path class="st0" d="M195.3,521l8,24.1,8.1-24.2c.2-.2.4-.4.6-.4.5,0,.8.2,1,.5v.4s-8.9,26.8-8.9,26.8c-.2.3-.4.4-.6.4-.3,0-.5,0-.7-.2l-.3-.3-8.8-26.7c0-.4.1-.7.4-.9.2,0,.4,0,.7,0,.2,0,.4.2.5.4Z"/>
    <path class="st0" d="M228.8,520.8l.2.4,8.8,26.7c0,.4-.1.7-.4.8-.1,0-.3.1-.4.1s-.3,0-.4,0c-.3-.1-.4-.3-.5-.6l-2.2-6.7h-11.5l-2.3,6.9c-.2.3-.4.4-.6.4-.5,0-.8-.2-1-.5v-.4c0,0,8.8-26.8,8.8-26.8.1-.2.3-.3.6-.4.4,0,.6,0,.8.2ZM223.1,539.7h10.2l-5.1-15.4-5.1,15.4Z"/>
    <path class="st0" d="M254.8,520.7c1.5,0,3,.5,4.3,1.6,1.4,1.1,2.3,2.4,2.8,3.9.3.9.4,1.8.4,2.7,0,1.7-.5,3.3-1.5,4.8-1,1.4-2.3,2.4-4,3v.2s5.5,10.9,5.5,10.9c0,0,0,.1,0,.2,0,.5-.3.8-.8.9-.3,0-.5,0-.7-.2l-.3-.4-5.6-11.2h-7.4v11.2c-.1.4-.4.6-.8.6s-.4,0-.5-.1c-.2-.1-.4-.3-.5-.6v-26.8c0-.4.3-.6.7-.6h8.2ZM254.8,522.4h-7.1v12.9h6.5c2,0,3.6-.8,5-2.4,1-1.1,1.4-2.5,1.4-4.1s-.2-1.6-.5-2.5c-.5-1.1-1.2-2-2.2-2.8-1-.8-2-1.1-3.1-1.1Z"/>
    <path class="st0" d="M274.7,521.1v.3c0,0,0,26.8,0,26.8,0,.2-.2.3-.4.5-.2,0-.3.1-.5.1s-.2,0-.3,0c-.4-.1-.5-.5-.5-1.1v-26.4c0-.2.2-.4.4-.6.1,0,.2-.1.4-.1.4,0,.7.2.8.5Z"/>
    <path class="st0" d="M300.8,525.2c.6,1.2.9,2.3.9,3.5v12.7c0,1.5-.5,2.9-1.6,4.2-1.1,1.3-2.3,2.3-3.8,2.8-.9.3-1.9.5-2.8.5-2.1,0-4-.7-5.5-2.1-1.8-1.6-2.7-3.6-2.7-5.9v-12.5c0-1.4.5-2.8,1.4-4.1.9-1.3,2.1-2.2,3.5-2.8,1-.4,2.1-.6,3.2-.6,2.2,0,4.1.8,5.7,2.3.7.6,1.2,1.4,1.6,2.2ZM299.3,526c-.4-.8-1-1.5-1.6-2-1.2-1-2.6-1.5-4.2-1.5s-1.5.1-2.3.4c-1.1.4-2,1.1-2.8,2.1-.8,1-1.2,2.1-1.3,3.2v12.6c0,1.7.7,3.1,2,4.4s2.8,1.8,4.5,1.8,1.4-.1,2.2-.4c1.1-.3,2-1,2.8-2,.8-1,1.3-2.1,1.4-3.2v-13.3c0-.7-.2-1.4-.6-2.2Z"/>
    <path class="st0" d="M353,520.6c.4,0,.6.4.6.8s0,.4-.2.6c-.2.2-.5.3-1,.3h-7.6c-1.1,0-2.1.4-3.1,1.1-1,.8-1.7,1.7-2.2,2.8-.3.8-.5,1.6-.5,2.2v12.7c0,1.1.4,2.2,1.2,3.2.8,1,1.8,1.7,2.9,2.1.8.3,1.6.4,2.4.4h6.4v-12.9h-3.7c-.2,0-.4-.2-.6-.4,0-.2,0-.3,0-.4,0-.4.2-.7.5-.8h.4c0,0,4.6,0,4.6,0,.3,0,.5.2.6.5v.4c0,0,0,14.9,0,14.9,0,.2-.2.4-.4.6h-.3c0,0-8.1,0-8.1,0-1.5,0-2.9-.5-4.2-1.5s-2.3-2.3-2.8-3.7c-.3-.9-.5-1.9-.5-2.8v-12.6c0-1.4.5-2.8,1.4-4.1,1-1.3,2.1-2.2,3.6-2.8,1.1-.5,2.1-.7,2.8-.7h8Z"/>
    <path class="st0" d="M372.1,520.7c1.5,0,3,.5,4.3,1.6,1.4,1.1,2.3,2.4,2.8,3.9.3.9.4,1.8.4,2.7,0,2.2-.7,4.1-2.2,5.6-1.7,1.8-3.8,2.7-6.4,2.7h-6.1v11.2c-.1.4-.4.6-.8.6s-.4,0-.5-.1c-.2-.1-.4-.3-.5-.6v-26.8c0-.4.3-.6.7-.6h8.2ZM372.1,522.4h-7.1v12.9h6.5c2,0,3.6-.8,5-2.4,1-1.1,1.4-2.5,1.4-4.1s-.2-1.6-.5-2.5c-.5-1.1-1.2-2-2.2-2.8-1-.8-2-1.1-3.1-1.1Z"/>
    <path class="st0" d="M401.2,522c.5.2.8.4.9.7,0,0,0,.1,0,.3,0,.3,0,.5-.2.7-.1.2-.3.3-.6.3s-.4,0-.7-.2c-.3-.1-.5-.2-.6-.2-2.3-.7-4.2-1.1-6-1.1h-.6c-.9,0-1.7.4-2.5,1-.8.6-1.3,1.3-1.7,2.1-.2.6-.4,1.2-.4,1.9,0,1.2.3,2.2,1,3.1.4.6.9,1.1,1.5,1.4l8.9,4.5c2.2,1.4,3.3,3.3,3.3,5.8s-.5,2.8-1.4,4.1c-.9,1.3-2.1,2.1-3.5,2.4-.6.2-1.4.2-2.1.2-1.6,0-3.5-.4-5.6-1.2-1.4-.6-2.7-1.2-3.7-2-.1-.2-.2-.4-.2-.7.1-.3.3-.5.5-.6,0,0,.2,0,.3,0,.3,0,.7.2,1.1.5.5.3.8.5,1,.6,2.4,1.2,4.6,1.8,6.7,1.8s.5,0,.8,0c.8,0,1.6-.4,2.3-1,.7-.6,1.3-1.3,1.5-2.1.2-.6.4-1.3.4-1.9,0-1.2-.4-2.3-1.2-3.2-.5-.6-1.1-1.1-1.8-1.4l-8.5-4.2c-2.1-1.4-3.2-3.3-3.2-5.8s.5-2.9,1.4-4.1c1-1.3,2.2-2.1,3.6-2.4.7-.2,1.4-.2,2-.2s1.9.1,3.2.3c1.3.2,2.6.6,3.8,1.1Z"/>
  </g>
  <path id="Black_Leaf1" data-name="Black_Leaf" class="st8" d="M164.3,449.5c-11-7.1-28.5-7.5-39.2-11.9-10.7-4.4-24.3-9.3-26.2-7.5s3.7,9.4,4.7,26.2-8.7,31.9,0,41.6c8.7,9.7,52-1.9,49.6,4.9s-38.2,13.2-38.2,16.2-.4,3.5,1.5,3.5c1.9,0,16.4-4.4,26.1-9s14.4-8.8,15-11.6c.7-2.8-2,0,4.5-8.9,6.5-8.9,19.7-33.4,2.2-43.5ZM154.9,498.5c-1-.3-2.5-14.4-11.6-23.1-9.1-8.7-19-12.7-23.6-17.4-4.6-4.7-16.6-22.7-15.6-23.5,1-.7,12.7,18.9,22.2,23.5,9.5,4.6,18.3,6.6,23.9,15.7s6.1,25.1,4.7,24.8Z"/>
</svg>