STARTFONT 2.1
COMMENT Exported by Fony v1.3.6
FONT Leaf_n_6x12
SIZE 12 96 96
FONTBOUNDINGBOX 12 11 0 0
STARTPROPERTIES 6
COPYRIGHT ""
RESOLUTION_X 96
RESOLUTION_Y 96
FONT_ASCENT 12
FONT_DESCENT 0
DEFAULT_CHAR 0
ENDPROPERTIES
CHARS 256
STARTCHAR 000
ENCODING 0
SWIDTH 72 0
DWIDTH 1 0
BBX 0 0 0 0
BITMAP
ENDCHAR
STARTCHAR 001
ENCODING 1
SWIDTH 72 0
DWIDTH 1 0
BBX 0 0 0 0
BITMAP
ENDCHAR
STARTCHAR 002
ENCODING 2
SWIDTH 72 0
DWIDTH 1 0
BBX 0 0 0 0
BITMAP
ENDCHAR
STARTCHAR 003
ENCODING 3
SWIDTH 72 0
DWIDTH 1 0
BBX 0 0 0 0
BITMAP
ENDCHAR
STARTCHAR 004
ENCODING 4
SWIDTH 72 0
DWIDTH 1 0
BBX 0 0 0 0
BITMAP
ENDCHAR
STARTCHAR 005
ENCODING 5
SWIDTH 72 0
DWIDTH 1 0
BBX 0 0 0 0
BITMAP
ENDCHAR
STARTCHAR 006
ENCODING 6
SWIDTH 72 0
DWIDTH 1 0
BBX 0 0 0 0
BITMAP
ENDCHAR
STARTCHAR 007
ENCODING 7
SWIDTH 72 0
DWIDTH 1 0
BBX 0 0 0 0
BITMAP
ENDCHAR
STARTCHAR 008
ENCODING 8
SWIDTH 72 0
DWIDTH 1 0
BBX 0 0 0 0
BITMAP
ENDCHAR
STARTCHAR 009
ENCODING 9
SWIDTH 72 0
DWIDTH 1 0
BBX 0 0 0 0
BITMAP
ENDCHAR
STARTCHAR 010
ENCODING 10
SWIDTH 72 0
DWIDTH 1 0
BBX 0 0 0 0
BITMAP
ENDCHAR
STARTCHAR 011
ENCODING 11
SWIDTH 72 0
DWIDTH 1 0
BBX 0 0 0 0
BITMAP
ENDCHAR
STARTCHAR 012
ENCODING 12
SWIDTH 72 0
DWIDTH 1 0
BBX 0 0 0 0
BITMAP
ENDCHAR
STARTCHAR 013
ENCODING 13
SWIDTH 72 0
DWIDTH 1 0
BBX 0 0 0 0
BITMAP
ENDCHAR
STARTCHAR 014
ENCODING 14
SWIDTH 72 0
DWIDTH 1 0
BBX 0 0 0 0
BITMAP
ENDCHAR
STARTCHAR 015
ENCODING 15
SWIDTH 72 0
DWIDTH 1 0
BBX 0 0 0 0
BITMAP
ENDCHAR
STARTCHAR 016
ENCODING 16
SWIDTH 72 0
DWIDTH 1 0
BBX 0 0 0 0
BITMAP
ENDCHAR
STARTCHAR 017
ENCODING 17
SWIDTH 72 0
DWIDTH 1 0
BBX 0 0 0 0
BITMAP
ENDCHAR
STARTCHAR 018
ENCODING 18
SWIDTH 72 0
DWIDTH 1 0
BBX 0 0 0 0
BITMAP
ENDCHAR
STARTCHAR 019
ENCODING 19
SWIDTH 72 0
DWIDTH 1 0
BBX 0 0 0 0
BITMAP
ENDCHAR
STARTCHAR 020
ENCODING 20
SWIDTH 72 0
DWIDTH 1 0
BBX 0 0 0 0
BITMAP
ENDCHAR
STARTCHAR 021
ENCODING 21
SWIDTH 72 0
DWIDTH 1 0
BBX 0 0 0 0
BITMAP
ENDCHAR
STARTCHAR 022
ENCODING 22
SWIDTH 72 0
DWIDTH 1 0
BBX 0 0 0 0
BITMAP
ENDCHAR
STARTCHAR 023
ENCODING 23
SWIDTH 72 0
DWIDTH 1 0
BBX 0 0 0 0
BITMAP
ENDCHAR
STARTCHAR 024
ENCODING 24
SWIDTH 72 0
DWIDTH 1 0
BBX 0 0 0 0
BITMAP
ENDCHAR
STARTCHAR 025
ENCODING 25
SWIDTH 72 0
DWIDTH 1 0
BBX 0 0 0 0
BITMAP
ENDCHAR
STARTCHAR 026
ENCODING 26
SWIDTH 72 0
DWIDTH 1 0
BBX 0 0 0 0
BITMAP
ENDCHAR
STARTCHAR 027
ENCODING 27
SWIDTH 72 0
DWIDTH 1 0
BBX 0 0 0 0
BITMAP
ENDCHAR
STARTCHAR 028
ENCODING 28
SWIDTH 72 0
DWIDTH 1 0
BBX 0 0 0 0
BITMAP
ENDCHAR
STARTCHAR 029
ENCODING 29
SWIDTH 72 0
DWIDTH 1 0
BBX 0 0 0 0
BITMAP
ENDCHAR
STARTCHAR 030
ENCODING 30
SWIDTH 72 0
DWIDTH 1 0
BBX 0 0 0 0
BITMAP
ENDCHAR
STARTCHAR 031
ENCODING 31
SWIDTH 72 0
DWIDTH 1 0
BBX 0 0 0 0
BITMAP
ENDCHAR
STARTCHAR 032
ENCODING 32
SWIDTH 576 0
DWIDTH 8 0
BBX 0 0 0 0
BITMAP
ENDCHAR
STARTCHAR 033
ENCODING 33
SWIDTH 216 0
DWIDTH 3 0
BBX 2 12 0 0
BITMAP
C0
C0
C0
C0
C0
C0
C0
C0
00
00
C0
C0
ENDCHAR
STARTCHAR 034
ENCODING 34
SWIDTH 432 0
DWIDTH 6 0
BBX 5 4 0 7
BITMAP
D8
D8
90
90
ENDCHAR
STARTCHAR 035
ENCODING 35
SWIDTH 432 0
DWIDTH 6 0
BBX 5 10 0 0
BITMAP
50
50
F8
F8
50
50
F8
F8
50
50
ENDCHAR
STARTCHAR 036
ENCODING 36
SWIDTH 432 0
DWIDTH 6 0
BBX 5 12 0 0
BITMAP
20
70
F8
A8
A0
F0
78
28
A8
F8
70
20
ENDCHAR
STARTCHAR 037
ENCODING 37
SWIDTH 864 0
DWIDTH 12 0
BBX 11 12 0 0
BITMAP
7180
D980
8B00
DB00
7600
0600
0C00
0DC0
1B60
1A20
3360
31C0
ENDCHAR
STARTCHAR 038
ENCODING 38
SWIDTH 504 0
DWIDTH 7 0
BBX 6 12 0 0
BITMAP
30
78
48
48
78
30
74
DC
8C
C8
FC
74
ENDCHAR
STARTCHAR 039
ENCODING 39
SWIDTH 216 0
DWIDTH 3 0
BBX 2 4 0 8
BITMAP
C0
C0
80
80
ENDCHAR
STARTCHAR 040
ENCODING 40
SWIDTH 288 0
DWIDTH 4 0
BBX 3 12 0 0
BITMAP
60
60
C0
C0
C0
C0
C0
C0
C0
C0
60
60
ENDCHAR
STARTCHAR 041
ENCODING 41
SWIDTH 288 0
DWIDTH 4 0
BBX 3 12 0 0
BITMAP
C0
C0
60
60
60
60
60
60
60
60
C0
C0
ENDCHAR
STARTCHAR 042
ENCODING 42
SWIDTH 432 0
DWIDTH 6 0
BBX 5 7 0 4
BITMAP
20
A8
70
20
70
A8
20
ENDCHAR
STARTCHAR 043
ENCODING 43
SWIDTH 504 0
DWIDTH 7 0
BBX 6 6 0 1
BITMAP
30
30
FC
FC
30
30
ENDCHAR
STARTCHAR 044
ENCODING 44
SWIDTH 216 0
DWIDTH 3 0
BBX 2 3 0 0
BITMAP
C0
C0
80
ENDCHAR
STARTCHAR 045
ENCODING 45
SWIDTH 504 0
DWIDTH 7 0
BBX 6 2 0 3
BITMAP
FC
FC
ENDCHAR
STARTCHAR 046
ENCODING 46
SWIDTH 216 0
DWIDTH 3 0
BBX 2 2 0 0
BITMAP
C0
C0
ENDCHAR
STARTCHAR 047
ENCODING 47
SWIDTH 432 0
DWIDTH 6 0
BBX 5 12 0 0
BITMAP
18
18
18
30
30
30
60
60
60
C0
C0
C0
ENDCHAR
STARTCHAR 048
ENCODING 48
SWIDTH 504 0
DWIDTH 7 0
BBX 6 12 0 0
BITMAP
78
FC
CC
CC
CC
CC
CC
CC
CC
CC
FC
78
ENDCHAR
STARTCHAR 049
ENCODING 49
SWIDTH 504 0
DWIDTH 7 0
BBX 6 12 0 0
BITMAP
30
70
F0
F0
30
30
30
30
30
30
FC
FC
ENDCHAR
STARTCHAR 050
ENCODING 50
SWIDTH 504 0
DWIDTH 7 0
BBX 6 12 0 0
BITMAP
78
FC
CC
0C
1C
38
70
E0
C0
C0
FC
FC
ENDCHAR
STARTCHAR 051
ENCODING 51
SWIDTH 504 0
DWIDTH 7 0
BBX 6 12 0 0
BITMAP
78
FC
CC
0C
0C
38
38
0C
0C
CC
FC
78
ENDCHAR
STARTCHAR 052
ENCODING 52
SWIDTH 504 0
DWIDTH 7 0
BBX 6 12 0 0
BITMAP
18
18
38
38
78
58
D8
FC
FC
18
18
18
ENDCHAR
STARTCHAR 053
ENCODING 53
SWIDTH 504 0
DWIDTH 7 0
BBX 6 12 0 0
BITMAP
FC
FC
C0
C0
F8
FC
0C
0C
CC
CC
FC
78
ENDCHAR
STARTCHAR 054
ENCODING 54
SWIDTH 504 0
DWIDTH 7 0
BBX 6 12 0 0
BITMAP
78
FC
CC
C0
C0
F8
FC
CC
CC
CC
FC
78
ENDCHAR
STARTCHAR 055
ENCODING 55
SWIDTH 504 0
DWIDTH 7 0
BBX 6 12 0 0
BITMAP
FC
FC
0C
0C
18
18
30
30
60
60
60
60
ENDCHAR
STARTCHAR 056
ENCODING 56
SWIDTH 504 0
DWIDTH 7 0
BBX 6 12 0 0
BITMAP
78
FC
CC
CC
CC
78
78
CC
CC
CC
FC
78
ENDCHAR
STARTCHAR 057
ENCODING 57
SWIDTH 504 0
DWIDTH 7 0
BBX 6 12 0 0
BITMAP
78
FC
CC
CC
CC
FC
7C
0C
0C
CC
FC
78
ENDCHAR
STARTCHAR 058
ENCODING 58
SWIDTH 216 0
DWIDTH 3 0
BBX 2 6 0 2
BITMAP
C0
C0
00
00
C0
C0
ENDCHAR
STARTCHAR 059
ENCODING 59
SWIDTH 216 0
DWIDTH 3 0
BBX 2 8 0 0
BITMAP
C0
C0
00
00
C0
C0
40
80
ENDCHAR
STARTCHAR 060
ENCODING 60
SWIDTH 576 0
DWIDTH 8 0
BBX 7 12 0 0
BITMAP
06
0E
1E
3E
7E
FE
FE
7E
3E
1E
0E
06
ENDCHAR
STARTCHAR 061
ENCODING 61
SWIDTH 504 0
DWIDTH 7 0
BBX 6 6 0 2
BITMAP
FC
FC
00
00
FC
FC
ENDCHAR
STARTCHAR 062
ENCODING 62
SWIDTH 576 0
DWIDTH 8 0
BBX 7 12 0 0
BITMAP
C0
E0
F0
F8
FC
FE
FE
FC
F8
F0
E0
C0
ENDCHAR
STARTCHAR 063
ENCODING 63
SWIDTH 504 0
DWIDTH 7 0
BBX 6 12 0 0
BITMAP
78
FC
CC
CC
0C
18
30
30
30
00
30
30
ENDCHAR
STARTCHAR 064
ENCODING 64
SWIDTH 576 0
DWIDTH 8 0
BBX 7 11 0 0
BITMAP
38
44
82
9A
AA
AA
AA
AA
96
40
38
ENDCHAR
STARTCHAR 065
ENCODING 65
SWIDTH 576 0
DWIDTH 8 0
BBX 7 12 0 0
BITMAP
10
38
38
6C
6C
6C
C6
C6
FE
FE
C6
C6
ENDCHAR
STARTCHAR 066
ENCODING 66
SWIDTH 576 0
DWIDTH 8 0
BBX 7 12 0 0
BITMAP
F8
FC
CC
C4
CC
F8
FC
C6
C6
C6
FC
F8
ENDCHAR
STARTCHAR 067
ENCODING 67
SWIDTH 576 0
DWIDTH 8 0
BBX 7 12 0 0
BITMAP
38
7C
C6
C6
C0
C0
C0
C0
C6
C6
7C
38
ENDCHAR
STARTCHAR 068
ENCODING 68
SWIDTH 576 0
DWIDTH 8 0
BBX 7 12 0 0
BITMAP
F8
FC
CE
C6
C6
C6
C6
C6
C6
CE
FC
F8
ENDCHAR
STARTCHAR 069
ENCODING 69
SWIDTH 576 0
DWIDTH 8 0
BBX 7 12 0 0
BITMAP
FE
FE
C0
C0
C0
F8
F8
C0
C0
C0
FE
FE
ENDCHAR
STARTCHAR 070
ENCODING 70
SWIDTH 576 0
DWIDTH 8 0
BBX 7 12 0 0
BITMAP
FE
FE
C0
C0
C0
F8
F8
C0
C0
C0
C0
C0
ENDCHAR
STARTCHAR 071
ENCODING 71
SWIDTH 576 0
DWIDTH 8 0
BBX 7 12 0 0
BITMAP
38
7C
C6
C6
C0
C0
CE
CE
C6
C6
7C
38
ENDCHAR
STARTCHAR 072
ENCODING 72
SWIDTH 576 0
DWIDTH 8 0
BBX 7 12 0 0
BITMAP
C6
C6
C6
C6
C6
FE
FE
C6
C6
C6
C6
C6
ENDCHAR
STARTCHAR 073
ENCODING 73
SWIDTH 504 0
DWIDTH 7 0
BBX 6 12 0 0
BITMAP
FC
FC
30
30
30
30
30
30
30
30
FC
FC
ENDCHAR
STARTCHAR 074
ENCODING 74
SWIDTH 576 0
DWIDTH 8 0
BBX 7 12 0 0
BITMAP
06
06
06
06
06
06
06
06
C6
C6
7C
38
ENDCHAR
STARTCHAR 075
ENCODING 75
SWIDTH 576 0
DWIDTH 8 0
BBX 7 12 0 0
BITMAP
C6
C6
CC
CC
D8
F0
F0
D8
CC
CC
C6
C6
ENDCHAR
STARTCHAR 076
ENCODING 76
SWIDTH 504 0
DWIDTH 7 0
BBX 6 12 0 0
BITMAP
C0
C0
C0
C0
C0
C0
C0
C0
C0
C0
FC
FC
ENDCHAR
STARTCHAR 077
ENCODING 77
SWIDTH 576 0
DWIDTH 8 0
BBX 7 12 0 0
BITMAP
C6
C6
EE
FE
FE
D6
D6
C6
C6
C6
C6
C6
ENDCHAR
STARTCHAR 078
ENCODING 78
SWIDTH 576 0
DWIDTH 8 0
BBX 7 12 0 0
BITMAP
C6
C6
E6
E6
F6
F6
DE
DE
CE
CE
C6
C6
ENDCHAR
STARTCHAR 079
ENCODING 79
SWIDTH 576 0
DWIDTH 8 0
BBX 7 12 0 0
BITMAP
38
7C
C6
C6
C6
C6
C6
C6
C6
C6
7C
38
ENDCHAR
STARTCHAR 080
ENCODING 80
SWIDTH 576 0
DWIDTH 8 0
BBX 7 12 0 0
BITMAP
F8
FC
C6
C6
C6
FC
F8
C0
C0
C0
C0
C0
ENDCHAR
STARTCHAR 081
ENCODING 81
SWIDTH 576 0
DWIDTH 8 0
BBX 7 12 0 0
BITMAP
38
7C
C6
C6
C6
C6
C6
C6
C6
C4
7E
3E
ENDCHAR
STARTCHAR 082
ENCODING 82
SWIDTH 576 0
DWIDTH 8 0
BBX 7 12 0 0
BITMAP
F8
FC
C6
C6
C6
FC
F8
D8
CC
CC
C6
C6
ENDCHAR
STARTCHAR 083
ENCODING 83
SWIDTH 576 0
DWIDTH 8 0
BBX 7 12 0 0
BITMAP
7C
FE
C6
C0
E0
78
3C
0E
06
C6
FE
7C
ENDCHAR
STARTCHAR 084
ENCODING 84
SWIDTH 504 0
DWIDTH 7 0
BBX 6 12 0 0
BITMAP
FC
FC
30
30
30
30
30
30
30
30
30
30
ENDCHAR
STARTCHAR 085
ENCODING 85
SWIDTH 576 0
DWIDTH 8 0
BBX 7 12 0 0
BITMAP
C6
C6
C6
C6
C6
C6
C6
C6
C6
C6
FE
7C
ENDCHAR
STARTCHAR 086
ENCODING 86
SWIDTH 576 0
DWIDTH 8 0
BBX 7 12 0 0
BITMAP
C6
C6
C6
C6
C6
C6
6C
6C
6C
38
38
10
ENDCHAR
STARTCHAR 087
ENCODING 87
SWIDTH 576 0
DWIDTH 8 0
BBX 7 12 0 0
BITMAP
C6
C6
C6
C6
C6
C6
D6
D6
D6
FE
6C
6C
ENDCHAR
STARTCHAR 088
ENCODING 88
SWIDTH 576 0
DWIDTH 8 0
BBX 7 12 0 0
BITMAP
C6
C6
C6
6C
6C
38
38
6C
6C
C6
C6
C6
ENDCHAR
STARTCHAR 089
ENCODING 89
SWIDTH 504 0
DWIDTH 7 0
BBX 6 12 0 0
BITMAP
CC
CC
CC
CC
CC
78
78
30
30
30
30
30
ENDCHAR
STARTCHAR 090
ENCODING 90
SWIDTH 576 0
DWIDTH 8 0
BBX 7 12 0 0
BITMAP
FE
FE
06
06
0C
18
30
60
C0
C0
FE
FE
ENDCHAR
STARTCHAR 091
ENCODING 91
SWIDTH 360 0
DWIDTH 5 0
BBX 0 0 0 0
BITMAP
ENDCHAR
STARTCHAR 092
ENCODING 92
SWIDTH 360 0
DWIDTH 5 0
BBX 0 0 0 0
BITMAP
ENDCHAR
STARTCHAR 093
ENCODING 93
SWIDTH 360 0
DWIDTH 5 0
BBX 0 0 0 0
BITMAP
ENDCHAR
STARTCHAR 094
ENCODING 94
SWIDTH 360 0
DWIDTH 5 0
BBX 0 0 0 0
BITMAP
ENDCHAR
STARTCHAR 095
ENCODING 95
SWIDTH 432 0
DWIDTH 6 0
BBX 5 1 0 0
BITMAP
F8
ENDCHAR
STARTCHAR 096
ENCODING 96
SWIDTH 360 0
DWIDTH 5 0
BBX 0 0 0 0
BITMAP
ENDCHAR
STARTCHAR 097
ENCODING 97
SWIDTH 432 0
DWIDTH 6 0
BBX 5 6 0 0
BITMAP
70
18
78
D8
D8
78
ENDCHAR
STARTCHAR 098
ENCODING 98
SWIDTH 360 0
DWIDTH 5 0
BBX 0 0 0 0
BITMAP
ENDCHAR
STARTCHAR 099
ENCODING 99
SWIDTH 432 0
DWIDTH 6 0
BBX 5 6 0 0
BITMAP
70
D8
C0
C0
D8
70
ENDCHAR
STARTCHAR 100
ENCODING 100
SWIDTH 360 0
DWIDTH 5 0
BBX 0 0 0 0
BITMAP
ENDCHAR
STARTCHAR 101
ENCODING 101
SWIDTH 360 0
DWIDTH 5 0
BBX 0 0 0 0
BITMAP
ENDCHAR
STARTCHAR 102
ENCODING 102
SWIDTH 432 0
DWIDTH 6 0
BBX 5 8 0 0
BITMAP
70
F8
D8
C0
F0
C0
C0
C0
ENDCHAR
STARTCHAR 103
ENCODING 103
SWIDTH 432 0
DWIDTH 6 0
BBX 5 8 0 0
BITMAP
78
D8
D8
D8
78
18
78
70
ENDCHAR
STARTCHAR 104
ENCODING 104
SWIDTH 360 0
DWIDTH 5 0
BBX 5 9 0 0
BITMAP
C0
C0
C0
F0
F8
D8
D8
D8
D8
ENDCHAR
STARTCHAR 105
ENCODING 105
SWIDTH 288 0
DWIDTH 4 0
BBX 3 9 0 0
BITMAP
C0
C0
00
C0
C0
C0
C0
E0
60
ENDCHAR
STARTCHAR 106
ENCODING 106
SWIDTH 288 0
DWIDTH 4 0
BBX 3 9 0 0
BITMAP
60
60
00
60
60
60
60
E0
C0
ENDCHAR
STARTCHAR 107
ENCODING 107
SWIDTH 432 0
DWIDTH 6 0
BBX 5 9 0 0
BITMAP
C0
C0
D8
D8
F0
F0
D8
D8
D8
ENDCHAR
STARTCHAR 108
ENCODING 108
SWIDTH 288 0
DWIDTH 4 0
BBX 3 9 0 0
BITMAP
C0
C0
C0
C0
C0
C0
C0
E0
60
ENDCHAR
STARTCHAR 109
ENCODING 109
SWIDTH 576 0
DWIDTH 8 0
BBX 7 7 0 0
BITMAP
EC
FE
D6
D6
C6
C6
C6
ENDCHAR
STARTCHAR 110
ENCODING 110
SWIDTH 432 0
DWIDTH 6 0
BBX 5 7 0 0
BITMAP
F0
F8
D8
D8
D8
D8
D8
ENDCHAR
STARTCHAR 111
ENCODING 111
SWIDTH 432 0
DWIDTH 6 0
BBX 5 7 0 0
BITMAP
70
D8
D8
D8
D8
D8
70
ENDCHAR
STARTCHAR 112
ENCODING 112
SWIDTH 432 0
DWIDTH 6 0
BBX 5 7 0 0
BITMAP
F0
D8
D8
D8
F0
C0
C0
ENDCHAR
STARTCHAR 113
ENCODING 113
SWIDTH 360 0
DWIDTH 5 0
BBX 0 0 0 0
BITMAP
ENDCHAR
STARTCHAR 114
ENCODING 114
SWIDTH 432 0
DWIDTH 6 0
BBX 5 7 0 0
BITMAP
B0
F8
D8
C0
C0
C0
C0
ENDCHAR
STARTCHAR 115
ENCODING 115
SWIDTH 432 0
DWIDTH 6 0
BBX 5 7 0 0
BITMAP
78
D8
C0
70
18
D8
F0
ENDCHAR
STARTCHAR 116
ENCODING 116
SWIDTH 360 0
DWIDTH 5 0
BBX 5 9 0 0
BITMAP
60
60
F8
F8
60
60
60
78
38
ENDCHAR
STARTCHAR 117
ENCODING 117
SWIDTH 360 0
DWIDTH 5 0
BBX 0 0 0 0
BITMAP
ENDCHAR
STARTCHAR 118
ENCODING 118
SWIDTH 360 0
DWIDTH 5 0
BBX 0 0 0 0
BITMAP
ENDCHAR
STARTCHAR 119
ENCODING 119
SWIDTH 360 0
DWIDTH 5 0
BBX 0 0 0 0
BITMAP
ENDCHAR
STARTCHAR 120
ENCODING 120
SWIDTH 360 0
DWIDTH 5 0
BBX 0 0 0 0
BITMAP
ENDCHAR
STARTCHAR 121
ENCODING 121
SWIDTH 360 0
DWIDTH 5 0
BBX 0 0 0 0
BITMAP
ENDCHAR
STARTCHAR 122
ENCODING 122
SWIDTH 360 0
DWIDTH 5 0
BBX 0 0 0 0
BITMAP
ENDCHAR
STARTCHAR 123
ENCODING 123
SWIDTH 360 0
DWIDTH 5 0
BBX 0 0 0 0
BITMAP
ENDCHAR
STARTCHAR 124
ENCODING 124
SWIDTH 360 0
DWIDTH 5 0
BBX 0 0 0 0
BITMAP
ENDCHAR
STARTCHAR 125
ENCODING 125
SWIDTH 360 0
DWIDTH 5 0
BBX 0 0 0 0
BITMAP
ENDCHAR
STARTCHAR 126
ENCODING 126
SWIDTH 360 0
DWIDTH 5 0
BBX 0 0 0 0
BITMAP
ENDCHAR
STARTCHAR 127
ENCODING 127
SWIDTH 432 0
DWIDTH 6 0
BBX 5 5 0 0
BITMAP
D0
A8
A8
88
88
ENDCHAR
STARTCHAR 128
ENCODING 128
SWIDTH 432 0
DWIDTH 6 0
BBX 5 10 0 0
BITMAP
40
A0
80
C0
80
90
38
10
10
08
ENDCHAR
STARTCHAR 129
ENCODING 129
SWIDTH 432 0
DWIDTH 6 0
BBX 5 11 0 0
BITMAP
80
90
A0
C0
A0
90
00
D0
A8
A8
88
ENDCHAR
STARTCHAR 130
ENCODING 130
SWIDTH 432 0
DWIDTH 6 0
BBX 5 10 0 0
BITMAP
D0
A8
A8
88
00
20
00
20
20
20
ENDCHAR
STARTCHAR 131
ENCODING 131
SWIDTH 432 0
DWIDTH 6 0
BBX 5 12 0 0
BITMAP
D0
A8
A8
88
00
F8
00
38
40
30
08
70
ENDCHAR
STARTCHAR 132
ENCODING 132
SWIDTH 432 0
DWIDTH 6 0
BBX 5 12 0 0
BITMAP
60
80
D0
98
90
08
00
F8
00
D0
A8
88
ENDCHAR
STARTCHAR 133
ENCODING 133
SWIDTH 360 0
DWIDTH 5 0
BBX 4 10 0 2
BITMAP
60
90
90
60
00
60
90
80
90
60
ENDCHAR
STARTCHAR 134
ENCODING 134
SWIDTH 360 0
DWIDTH 5 0
BBX 4 10 0 2
BITMAP
60
90
90
60
00
70
40
60
40
40
ENDCHAR
STARTCHAR 135
ENCODING 135
SWIDTH 360 0
DWIDTH 5 0
BBX 0 0 0 0
BITMAP
ENDCHAR
STARTCHAR 136
ENCODING 136
SWIDTH 360 0
DWIDTH 5 0
BBX 0 0 0 0
BITMAP
ENDCHAR
STARTCHAR 137
ENCODING 137
SWIDTH 360 0
DWIDTH 5 0
BBX 0 0 0 0
BITMAP
ENDCHAR
STARTCHAR 138
ENCODING 138
SWIDTH 360 0
DWIDTH 5 0
BBX 0 0 0 0
BITMAP
ENDCHAR
STARTCHAR 139
ENCODING 139
SWIDTH 360 0
DWIDTH 5 0
BBX 0 0 0 0
BITMAP
ENDCHAR
STARTCHAR 140
ENCODING 140
SWIDTH 360 0
DWIDTH 5 0
BBX 0 0 0 0
BITMAP
ENDCHAR
STARTCHAR 141
ENCODING 141
SWIDTH 360 0
DWIDTH 5 0
BBX 0 0 0 0
BITMAP
ENDCHAR
STARTCHAR 142
ENCODING 142
SWIDTH 360 0
DWIDTH 5 0
BBX 0 0 0 0
BITMAP
ENDCHAR
STARTCHAR 143
ENCODING 143
SWIDTH 360 0
DWIDTH 5 0
BBX 0 0 0 0
BITMAP
ENDCHAR
STARTCHAR 144
ENCODING 144
SWIDTH 360 0
DWIDTH 5 0
BBX 0 0 0 0
BITMAP
ENDCHAR
STARTCHAR 145
ENCODING 145
SWIDTH 360 0
DWIDTH 5 0
BBX 0 0 0 0
BITMAP
ENDCHAR
STARTCHAR 146
ENCODING 146
SWIDTH 360 0
DWIDTH 5 0
BBX 0 0 0 0
BITMAP
ENDCHAR
STARTCHAR 147
ENCODING 147
SWIDTH 360 0
DWIDTH 5 0
BBX 0 0 0 0
BITMAP
ENDCHAR
STARTCHAR 148
ENCODING 148
SWIDTH 360 0
DWIDTH 5 0
BBX 0 0 0 0
BITMAP
ENDCHAR
STARTCHAR 149
ENCODING 149
SWIDTH 360 0
DWIDTH 5 0
BBX 0 0 0 0
BITMAP
ENDCHAR
STARTCHAR 150
ENCODING 150
SWIDTH 360 0
DWIDTH 5 0
BBX 0 0 0 0
BITMAP
ENDCHAR
STARTCHAR 151
ENCODING 151
SWIDTH 360 0
DWIDTH 5 0
BBX 0 0 0 0
BITMAP
ENDCHAR
STARTCHAR 152
ENCODING 152
SWIDTH 360 0
DWIDTH 5 0
BBX 0 0 0 0
BITMAP
ENDCHAR
STARTCHAR 153
ENCODING 153
SWIDTH 360 0
DWIDTH 5 0
BBX 0 0 0 0
BITMAP
ENDCHAR
STARTCHAR 154
ENCODING 154
SWIDTH 360 0
DWIDTH 5 0
BBX 0 0 0 0
BITMAP
ENDCHAR
STARTCHAR 155
ENCODING 155
SWIDTH 360 0
DWIDTH 5 0
BBX 0 0 0 0
BITMAP
ENDCHAR
STARTCHAR 156
ENCODING 156
SWIDTH 360 0
DWIDTH 5 0
BBX 0 0 0 0
BITMAP
ENDCHAR
STARTCHAR 157
ENCODING 157
SWIDTH 360 0
DWIDTH 5 0
BBX 0 0 0 0
BITMAP
ENDCHAR
STARTCHAR 158
ENCODING 158
SWIDTH 360 0
DWIDTH 5 0
BBX 0 0 0 0
BITMAP
ENDCHAR
STARTCHAR 159
ENCODING 159
SWIDTH 360 0
DWIDTH 5 0
BBX 0 0 0 0
BITMAP
ENDCHAR
STARTCHAR 160
ENCODING 160
SWIDTH 72 0
DWIDTH 1 0
BBX 0 0 0 0
BITMAP
ENDCHAR
STARTCHAR 161
ENCODING 161
SWIDTH 72 0
DWIDTH 1 0
BBX 0 0 0 0
BITMAP
ENDCHAR
STARTCHAR 162
ENCODING 162
SWIDTH 72 0
DWIDTH 1 0
BBX 0 0 0 0
BITMAP
ENDCHAR
STARTCHAR 163
ENCODING 163
SWIDTH 72 0
DWIDTH 1 0
BBX 0 0 0 0
BITMAP
ENDCHAR
STARTCHAR 164
ENCODING 164
SWIDTH 72 0
DWIDTH 1 0
BBX 0 0 0 0
BITMAP
ENDCHAR
STARTCHAR 165
ENCODING 165
SWIDTH 72 0
DWIDTH 1 0
BBX 0 0 0 0
BITMAP
ENDCHAR
STARTCHAR 166
ENCODING 166
SWIDTH 72 0
DWIDTH 1 0
BBX 0 0 0 0
BITMAP
ENDCHAR
STARTCHAR 167
ENCODING 167
SWIDTH 72 0
DWIDTH 1 0
BBX 0 0 0 0
BITMAP
ENDCHAR
STARTCHAR 168
ENCODING 168
SWIDTH 72 0
DWIDTH 1 0
BBX 0 0 0 0
BITMAP
ENDCHAR
STARTCHAR 169
ENCODING 169
SWIDTH 72 0
DWIDTH 1 0
BBX 0 0 0 0
BITMAP
ENDCHAR
STARTCHAR 170
ENCODING 170
SWIDTH 72 0
DWIDTH 1 0
BBX 0 0 0 0
BITMAP
ENDCHAR
STARTCHAR 171
ENCODING 171
SWIDTH 72 0
DWIDTH 1 0
BBX 0 0 0 0
BITMAP
ENDCHAR
STARTCHAR 172
ENCODING 172
SWIDTH 72 0
DWIDTH 1 0
BBX 0 0 0 0
BITMAP
ENDCHAR
STARTCHAR 173
ENCODING 173
SWIDTH 72 0
DWIDTH 1 0
BBX 0 0 0 0
BITMAP
ENDCHAR
STARTCHAR 174
ENCODING 174
SWIDTH 72 0
DWIDTH 1 0
BBX 0 0 0 0
BITMAP
ENDCHAR
STARTCHAR 175
ENCODING 175
SWIDTH 72 0
DWIDTH 1 0
BBX 0 0 0 0
BITMAP
ENDCHAR
STARTCHAR 176
ENCODING 176
SWIDTH 72 0
DWIDTH 1 0
BBX 0 0 0 0
BITMAP
ENDCHAR
STARTCHAR 177
ENCODING 177
SWIDTH 72 0
DWIDTH 1 0
BBX 0 0 0 0
BITMAP
ENDCHAR
STARTCHAR 178
ENCODING 178
SWIDTH 72 0
DWIDTH 1 0
BBX 0 0 0 0
BITMAP
ENDCHAR
STARTCHAR 179
ENCODING 179
SWIDTH 72 0
DWIDTH 1 0
BBX 0 0 0 0
BITMAP
ENDCHAR
STARTCHAR 180
ENCODING 180
SWIDTH 72 0
DWIDTH 1 0
BBX 0 0 0 0
BITMAP
ENDCHAR
STARTCHAR 181
ENCODING 181
SWIDTH 72 0
DWIDTH 1 0
BBX 0 0 0 0
BITMAP
ENDCHAR
STARTCHAR 182
ENCODING 182
SWIDTH 72 0
DWIDTH 1 0
BBX 0 0 0 0
BITMAP
ENDCHAR
STARTCHAR 183
ENCODING 183
SWIDTH 72 0
DWIDTH 1 0
BBX 0 0 0 0
BITMAP
ENDCHAR
STARTCHAR 184
ENCODING 184
SWIDTH 72 0
DWIDTH 1 0
BBX 0 0 0 0
BITMAP
ENDCHAR
STARTCHAR 185
ENCODING 185
SWIDTH 72 0
DWIDTH 1 0
BBX 0 0 0 0
BITMAP
ENDCHAR
STARTCHAR 186
ENCODING 186
SWIDTH 72 0
DWIDTH 1 0
BBX 0 0 0 0
BITMAP
ENDCHAR
STARTCHAR 187
ENCODING 187
SWIDTH 72 0
DWIDTH 1 0
BBX 0 0 0 0
BITMAP
ENDCHAR
STARTCHAR 188
ENCODING 188
SWIDTH 72 0
DWIDTH 1 0
BBX 0 0 0 0
BITMAP
ENDCHAR
STARTCHAR 189
ENCODING 189
SWIDTH 72 0
DWIDTH 1 0
BBX 0 0 0 0
BITMAP
ENDCHAR
STARTCHAR 190
ENCODING 190
SWIDTH 72 0
DWIDTH 1 0
BBX 0 0 0 0
BITMAP
ENDCHAR
STARTCHAR 191
ENCODING 191
SWIDTH 72 0
DWIDTH 1 0
BBX 0 0 0 0
BITMAP
ENDCHAR
STARTCHAR 192
ENCODING 192
SWIDTH 72 0
DWIDTH 1 0
BBX 0 0 0 0
BITMAP
ENDCHAR
STARTCHAR 193
ENCODING 193
SWIDTH 72 0
DWIDTH 1 0
BBX 0 0 0 0
BITMAP
ENDCHAR
STARTCHAR 194
ENCODING 194
SWIDTH 72 0
DWIDTH 1 0
BBX 0 0 0 0
BITMAP
ENDCHAR
STARTCHAR 195
ENCODING 195
SWIDTH 72 0
DWIDTH 1 0
BBX 0 0 0 0
BITMAP
ENDCHAR
STARTCHAR 196
ENCODING 196
SWIDTH 72 0
DWIDTH 1 0
BBX 0 0 0 0
BITMAP
ENDCHAR
STARTCHAR 197
ENCODING 197
SWIDTH 72 0
DWIDTH 1 0
BBX 0 0 0 0
BITMAP
ENDCHAR
STARTCHAR 198
ENCODING 198
SWIDTH 72 0
DWIDTH 1 0
BBX 0 0 0 0
BITMAP
ENDCHAR
STARTCHAR 199
ENCODING 199
SWIDTH 72 0
DWIDTH 1 0
BBX 0 0 0 0
BITMAP
ENDCHAR
STARTCHAR 200
ENCODING 200
SWIDTH 72 0
DWIDTH 1 0
BBX 0 0 0 0
BITMAP
ENDCHAR
STARTCHAR 201
ENCODING 201
SWIDTH 72 0
DWIDTH 1 0
BBX 0 0 0 0
BITMAP
ENDCHAR
STARTCHAR 202
ENCODING 202
SWIDTH 72 0
DWIDTH 1 0
BBX 0 0 0 0
BITMAP
ENDCHAR
STARTCHAR 203
ENCODING 203
SWIDTH 72 0
DWIDTH 1 0
BBX 0 0 0 0
BITMAP
ENDCHAR
STARTCHAR 204
ENCODING 204
SWIDTH 72 0
DWIDTH 1 0
BBX 0 0 0 0
BITMAP
ENDCHAR
STARTCHAR 205
ENCODING 205
SWIDTH 72 0
DWIDTH 1 0
BBX 0 0 0 0
BITMAP
ENDCHAR
STARTCHAR 206
ENCODING 206
SWIDTH 72 0
DWIDTH 1 0
BBX 0 0 0 0
BITMAP
ENDCHAR
STARTCHAR 207
ENCODING 207
SWIDTH 72 0
DWIDTH 1 0
BBX 0 0 0 0
BITMAP
ENDCHAR
STARTCHAR 208
ENCODING 208
SWIDTH 72 0
DWIDTH 1 0
BBX 0 0 0 0
BITMAP
ENDCHAR
STARTCHAR 209
ENCODING 209
SWIDTH 72 0
DWIDTH 1 0
BBX 0 0 0 0
BITMAP
ENDCHAR
STARTCHAR 210
ENCODING 210
SWIDTH 72 0
DWIDTH 1 0
BBX 0 0 0 0
BITMAP
ENDCHAR
STARTCHAR 211
ENCODING 211
SWIDTH 72 0
DWIDTH 1 0
BBX 0 0 0 0
BITMAP
ENDCHAR
STARTCHAR 212
ENCODING 212
SWIDTH 72 0
DWIDTH 1 0
BBX 0 0 0 0
BITMAP
ENDCHAR
STARTCHAR 213
ENCODING 213
SWIDTH 72 0
DWIDTH 1 0
BBX 0 0 0 0
BITMAP
ENDCHAR
STARTCHAR 214
ENCODING 214
SWIDTH 72 0
DWIDTH 1 0
BBX 0 0 0 0
BITMAP
ENDCHAR
STARTCHAR 215
ENCODING 215
SWIDTH 72 0
DWIDTH 1 0
BBX 0 0 0 0
BITMAP
ENDCHAR
STARTCHAR 216
ENCODING 216
SWIDTH 72 0
DWIDTH 1 0
BBX 0 0 0 0
BITMAP
ENDCHAR
STARTCHAR 217
ENCODING 217
SWIDTH 72 0
DWIDTH 1 0
BBX 0 0 0 0
BITMAP
ENDCHAR
STARTCHAR 218
ENCODING 218
SWIDTH 72 0
DWIDTH 1 0
BBX 0 0 0 0
BITMAP
ENDCHAR
STARTCHAR 219
ENCODING 219
SWIDTH 72 0
DWIDTH 1 0
BBX 0 0 0 0
BITMAP
ENDCHAR
STARTCHAR 220
ENCODING 220
SWIDTH 72 0
DWIDTH 1 0
BBX 0 0 0 0
BITMAP
ENDCHAR
STARTCHAR 221
ENCODING 221
SWIDTH 72 0
DWIDTH 1 0
BBX 0 0 0 0
BITMAP
ENDCHAR
STARTCHAR 222
ENCODING 222
SWIDTH 72 0
DWIDTH 1 0
BBX 0 0 0 0
BITMAP
ENDCHAR
STARTCHAR 223
ENCODING 223
SWIDTH 72 0
DWIDTH 1 0
BBX 0 0 0 0
BITMAP
ENDCHAR
STARTCHAR 224
ENCODING 224
SWIDTH 72 0
DWIDTH 1 0
BBX 0 0 0 0
BITMAP
ENDCHAR
STARTCHAR 225
ENCODING 225
SWIDTH 72 0
DWIDTH 1 0
BBX 0 0 0 0
BITMAP
ENDCHAR
STARTCHAR 226
ENCODING 226
SWIDTH 72 0
DWIDTH 1 0
BBX 0 0 0 0
BITMAP
ENDCHAR
STARTCHAR 227
ENCODING 227
SWIDTH 72 0
DWIDTH 1 0
BBX 0 0 0 0
BITMAP
ENDCHAR
STARTCHAR 228
ENCODING 228
SWIDTH 72 0
DWIDTH 1 0
BBX 0 0 0 0
BITMAP
ENDCHAR
STARTCHAR 229
ENCODING 229
SWIDTH 72 0
DWIDTH 1 0
BBX 0 0 0 0
BITMAP
ENDCHAR
STARTCHAR 230
ENCODING 230
SWIDTH 72 0
DWIDTH 1 0
BBX 0 0 0 0
BITMAP
ENDCHAR
STARTCHAR 231
ENCODING 231
SWIDTH 72 0
DWIDTH 1 0
BBX 0 0 0 0
BITMAP
ENDCHAR
STARTCHAR 232
ENCODING 232
SWIDTH 72 0
DWIDTH 1 0
BBX 0 0 0 0
BITMAP
ENDCHAR
STARTCHAR 233
ENCODING 233
SWIDTH 72 0
DWIDTH 1 0
BBX 0 0 0 0
BITMAP
ENDCHAR
STARTCHAR 234
ENCODING 234
SWIDTH 72 0
DWIDTH 1 0
BBX 0 0 0 0
BITMAP
ENDCHAR
STARTCHAR 235
ENCODING 235
SWIDTH 72 0
DWIDTH 1 0
BBX 0 0 0 0
BITMAP
ENDCHAR
STARTCHAR 236
ENCODING 236
SWIDTH 72 0
DWIDTH 1 0
BBX 0 0 0 0
BITMAP
ENDCHAR
STARTCHAR 237
ENCODING 237
SWIDTH 72 0
DWIDTH 1 0
BBX 0 0 0 0
BITMAP
ENDCHAR
STARTCHAR 238
ENCODING 238
SWIDTH 72 0
DWIDTH 1 0
BBX 0 0 0 0
BITMAP
ENDCHAR
STARTCHAR 239
ENCODING 239
SWIDTH 72 0
DWIDTH 1 0
BBX 0 0 0 0
BITMAP
ENDCHAR
STARTCHAR 240
ENCODING 240
SWIDTH 72 0
DWIDTH 1 0
BBX 0 0 0 0
BITMAP
ENDCHAR
STARTCHAR 241
ENCODING 241
SWIDTH 72 0
DWIDTH 1 0
BBX 0 0 0 0
BITMAP
ENDCHAR
STARTCHAR 242
ENCODING 242
SWIDTH 72 0
DWIDTH 1 0
BBX 0 0 0 0
BITMAP
ENDCHAR
STARTCHAR 243
ENCODING 243
SWIDTH 72 0
DWIDTH 1 0
BBX 0 0 0 0
BITMAP
ENDCHAR
STARTCHAR 244
ENCODING 244
SWIDTH 72 0
DWIDTH 1 0
BBX 0 0 0 0
BITMAP
ENDCHAR
STARTCHAR 245
ENCODING 245
SWIDTH 72 0
DWIDTH 1 0
BBX 0 0 0 0
BITMAP
ENDCHAR
STARTCHAR 246
ENCODING 246
SWIDTH 72 0
DWIDTH 1 0
BBX 0 0 0 0
BITMAP
ENDCHAR
STARTCHAR 247
ENCODING 247
SWIDTH 72 0
DWIDTH 1 0
BBX 0 0 0 0
BITMAP
ENDCHAR
STARTCHAR 248
ENCODING 248
SWIDTH 72 0
DWIDTH 1 0
BBX 0 0 0 0
BITMAP
ENDCHAR
STARTCHAR 249
ENCODING 249
SWIDTH 72 0
DWIDTH 1 0
BBX 0 0 0 0
BITMAP
ENDCHAR
STARTCHAR 250
ENCODING 250
SWIDTH 72 0
DWIDTH 1 0
BBX 0 0 0 0
BITMAP
ENDCHAR
STARTCHAR 251
ENCODING 251
SWIDTH 72 0
DWIDTH 1 0
BBX 0 0 0 0
BITMAP
ENDCHAR
STARTCHAR 252
ENCODING 252
SWIDTH 72 0
DWIDTH 1 0
BBX 0 0 0 0
BITMAP
ENDCHAR
STARTCHAR 253
ENCODING 253
SWIDTH 72 0
DWIDTH 1 0
BBX 0 0 0 0
BITMAP
ENDCHAR
STARTCHAR 254
ENCODING 254
SWIDTH 72 0
DWIDTH 1 0
BBX 0 0 0 0
BITMAP
ENDCHAR
STARTCHAR 255
ENCODING 255
SWIDTH 72 0
DWIDTH 1 0
BBX 0 0 0 0
BITMAP
ENDCHAR
ENDFONT
