STARTFONT 2.1
COMMENT Exported by Fony v1.3.6
FONT leaf_10x17
SIZE 17 96 96
FONTBOUNDINGBOX 12 16 0 0
STARTPROPERTIES 6
COPYRIGHT ""
RESOLUTION_X 96
RESOLUTION_Y 96
FONT_ASCENT 17
FONT_DESCENT 0
DEFAULT_CHAR 0
ENDPROPERTIES
CHARS 96
STARTCHAR 032
ENCODING 32
SWIDTH 648 0
DWIDTH 9 0
BBX 0 0 0 0
BITMAP
ENDCHAR
STARTCHAR 033
ENCODING 33
SWIDTH 648 0
DWIDTH 9 0
BBX 0 0 0 0
BITMAP
ENDCHAR
STARTCHAR 034
ENCODING 34
SWIDTH 648 0
DWIDTH 9 0
BBX 0 0 0 0
BITMAP
ENDCHAR
STARTCHAR 035
ENCODING 35
SWIDTH 648 0
DWIDTH 9 0
BBX 0 0 0 0
BITMAP
ENDCHAR
STARTCHAR 036
ENCODING 36
SWIDTH 648 0
DWIDTH 9 0
BBX 0 0 0 0
BITMAP
ENDCHAR
STARTCHAR 037
ENCODING 37
SWIDTH 648 0
DWIDTH 9 0
BBX 0 0 0 0
BITMAP
ENDCHAR
STARTCHAR 038
ENCODING 38
SWIDTH 648 0
DWIDTH 9 0
BBX 0 0 0 0
BITMAP
ENDCHAR
STARTCHAR 039
ENCODING 39
SWIDTH 648 0
DWIDTH 9 0
BBX 0 0 0 0
BITMAP
ENDCHAR
STARTCHAR 040
ENCODING 40
SWIDTH 648 0
DWIDTH 9 0
BBX 0 0 0 0
BITMAP
ENDCHAR
STARTCHAR 041
ENCODING 41
SWIDTH 648 0
DWIDTH 9 0
BBX 0 0 0 0
BITMAP
ENDCHAR
STARTCHAR 042
ENCODING 42
SWIDTH 648 0
DWIDTH 9 0
BBX 0 0 0 0
BITMAP
ENDCHAR
STARTCHAR 043
ENCODING 43
SWIDTH 720 0
DWIDTH 10 0
BBX 8 10 0 3
BITMAP
18
18
18
18
FF
FF
18
18
18
18
ENDCHAR
STARTCHAR 044
ENCODING 44
SWIDTH 288 0
DWIDTH 4 0
BBX 2 4 0 0
BITMAP
C0
C0
40
80
ENDCHAR
STARTCHAR 045
ENCODING 45
SWIDTH 720 0
DWIDTH 10 0
BBX 8 2 0 7
BITMAP
FF
FF
ENDCHAR
STARTCHAR 046
ENCODING 46
SWIDTH 288 0
DWIDTH 4 0
BBX 2 3 0 0
BITMAP
C0
C0
C0
ENDCHAR
STARTCHAR 047
ENCODING 47
SWIDTH 648 0
DWIDTH 9 0
BBX 0 0 0 0
BITMAP
ENDCHAR
STARTCHAR 048
ENCODING 48
SWIDTH 864 0
DWIDTH 12 0
BBX 10 17 0 0
BITMAP
1E00
3F00
7F80
7380
E1C0
E1C0
E1C0
E1C0
E1C0
E1C0
E1C0
E1C0
E1C0
7380
7F80
3F00
1E00
ENDCHAR
STARTCHAR 049
ENCODING 49
SWIDTH 864 0
DWIDTH 12 0
BBX 9 17 1 0
BITMAP
1C00
1C00
3C00
7C00
7C00
1C00
1C00
1C00
1C00
1C00
1C00
1C00
1C00
1C00
FF80
FF80
FF80
ENDCHAR
STARTCHAR 050
ENCODING 50
SWIDTH 864 0
DWIDTH 12 0
BBX 10 17 0 0
BITMAP
3F00
7F80
FFC0
F3C0
E1C0
01C0
03C0
0780
0F00
1E00
3C00
7800
F000
E000
FFC0
FFC0
FFC0
ENDCHAR
STARTCHAR 051
ENCODING 51
SWIDTH 864 0
DWIDTH 12 0
BBX 10 17 0 0
BITMAP
1E00
7F80
7F80
F3C0
E1C0
01C0
03C0
0F80
0F00
0380
01C0
01C0
E1C0
F3C0
7F80
7F80
1E00
ENDCHAR
STARTCHAR 052
ENCODING 52
SWIDTH 864 0
DWIDTH 12 0
BBX 10 17 0 0
BITMAP
39C0
39C0
39C0
79C0
71C0
71C0
F1C0
E1C0
FFC0
FFC0
FFC0
01C0
01C0
01C0
01C0
01C0
01C0
ENDCHAR
STARTCHAR 053
ENCODING 53
SWIDTH 864 0
DWIDTH 12 0
BBX 10 17 0 0
BITMAP
FFC0
FFC0
FFC0
E000
E000
FE00
FF80
FF80
03C0
01C0
01C0
01C0
01C0
E3C0
FF80
FF80
3E00
ENDCHAR
STARTCHAR 054
ENCODING 54
SWIDTH 864 0
DWIDTH 12 0
BBX 10 17 0 0
BITMAP
0E00
3F80
7FC0
71C0
E000
E000
EE00
FF80
FF80
F3C0
E1C0
E1C0
E1C0
F3C0
7F80
7F80
1E00
ENDCHAR
STARTCHAR 055
ENCODING 55
SWIDTH 864 0
DWIDTH 12 0
BBX 10 17 0 0
BITMAP
FFC0
FFC0
FFC0
01C0
03C0
0380
0780
0700
0F00
0E00
1E00
1C00
1C00
3C00
3800
3800
3800
ENDCHAR
STARTCHAR 056
ENCODING 56
SWIDTH 864 0
DWIDTH 12 0
BBX 10 17 0 0
BITMAP
1E00
7F80
7F80
F3C0
E1C0
E1C0
7380
3F00
3F00
7380
E1C0
E1C0
E1C0
F3C0
7F80
7F80
1E00
ENDCHAR
STARTCHAR 057
ENCODING 57
SWIDTH 864 0
DWIDTH 12 0
BBX 10 17 0 0
BITMAP
1E00
7F80
7F80
F3C0
E1C0
E1C0
E1C0
F3C0
7FC0
7FC0
1DC0
01C0
01C0
E380
FF80
7F00
1C00
ENDCHAR
STARTCHAR 058
ENCODING 58
SWIDTH 648 0
DWIDTH 9 0
BBX 0 0 0 0
BITMAP
ENDCHAR
STARTCHAR 059
ENCODING 59
SWIDTH 648 0
DWIDTH 9 0
BBX 0 0 0 0
BITMAP
ENDCHAR
STARTCHAR 060
ENCODING 60
SWIDTH 648 0
DWIDTH 9 0
BBX 0 0 0 0
BITMAP
ENDCHAR
STARTCHAR 061
ENCODING 61
SWIDTH 648 0
DWIDTH 9 0
BBX 0 0 0 0
BITMAP
ENDCHAR
STARTCHAR 062
ENCODING 62
SWIDTH 648 0
DWIDTH 9 0
BBX 0 0 0 0
BITMAP
ENDCHAR
STARTCHAR 063
ENCODING 63
SWIDTH 648 0
DWIDTH 9 0
BBX 0 0 0 0
BITMAP
ENDCHAR
STARTCHAR 064
ENCODING 64
SWIDTH 648 0
DWIDTH 9 0
BBX 0 0 0 0
BITMAP
ENDCHAR
STARTCHAR 065
ENCODING 65
SWIDTH 648 0
DWIDTH 9 0
BBX 0 0 0 0
BITMAP
ENDCHAR
STARTCHAR 066
ENCODING 66
SWIDTH 648 0
DWIDTH 9 0
BBX 0 0 0 0
BITMAP
ENDCHAR
STARTCHAR 067
ENCODING 67
SWIDTH 648 0
DWIDTH 9 0
BBX 0 0 0 0
BITMAP
ENDCHAR
STARTCHAR 068
ENCODING 68
SWIDTH 648 0
DWIDTH 9 0
BBX 0 0 0 0
BITMAP
ENDCHAR
STARTCHAR 069
ENCODING 69
SWIDTH 648 0
DWIDTH 9 0
BBX 0 0 0 0
BITMAP
ENDCHAR
STARTCHAR 070
ENCODING 70
SWIDTH 648 0
DWIDTH 9 0
BBX 0 0 0 0
BITMAP
ENDCHAR
STARTCHAR 071
ENCODING 71
SWIDTH 648 0
DWIDTH 9 0
BBX 0 0 0 0
BITMAP
ENDCHAR
STARTCHAR 072
ENCODING 72
SWIDTH 648 0
DWIDTH 9 0
BBX 0 0 0 0
BITMAP
ENDCHAR
STARTCHAR 073
ENCODING 73
SWIDTH 648 0
DWIDTH 9 0
BBX 0 0 0 0
BITMAP
ENDCHAR
STARTCHAR 074
ENCODING 74
SWIDTH 648 0
DWIDTH 9 0
BBX 0 0 0 0
BITMAP
ENDCHAR
STARTCHAR 075
ENCODING 75
SWIDTH 648 0
DWIDTH 9 0
BBX 0 0 0 0
BITMAP
ENDCHAR
STARTCHAR 076
ENCODING 76
SWIDTH 648 0
DWIDTH 9 0
BBX 0 0 0 0
BITMAP
ENDCHAR
STARTCHAR 077
ENCODING 77
SWIDTH 648 0
DWIDTH 9 0
BBX 0 0 0 0
BITMAP
ENDCHAR
STARTCHAR 078
ENCODING 78
SWIDTH 648 0
DWIDTH 9 0
BBX 0 0 0 0
BITMAP
ENDCHAR
STARTCHAR 079
ENCODING 79
SWIDTH 648 0
DWIDTH 9 0
BBX 0 0 0 0
BITMAP
ENDCHAR
STARTCHAR 080
ENCODING 80
SWIDTH 648 0
DWIDTH 9 0
BBX 0 0 0 0
BITMAP
ENDCHAR
STARTCHAR 081
ENCODING 81
SWIDTH 648 0
DWIDTH 9 0
BBX 0 0 0 0
BITMAP
ENDCHAR
STARTCHAR 082
ENCODING 82
SWIDTH 648 0
DWIDTH 9 0
BBX 0 0 0 0
BITMAP
ENDCHAR
STARTCHAR 083
ENCODING 83
SWIDTH 648 0
DWIDTH 9 0
BBX 0 0 0 0
BITMAP
ENDCHAR
STARTCHAR 084
ENCODING 84
SWIDTH 648 0
DWIDTH 9 0
BBX 0 0 0 0
BITMAP
ENDCHAR
STARTCHAR 085
ENCODING 85
SWIDTH 648 0
DWIDTH 9 0
BBX 0 0 0 0
BITMAP
ENDCHAR
STARTCHAR 086
ENCODING 86
SWIDTH 648 0
DWIDTH 9 0
BBX 0 0 0 0
BITMAP
ENDCHAR
STARTCHAR 087
ENCODING 87
SWIDTH 648 0
DWIDTH 9 0
BBX 0 0 0 0
BITMAP
ENDCHAR
STARTCHAR 088
ENCODING 88
SWIDTH 648 0
DWIDTH 9 0
BBX 0 0 0 0
BITMAP
ENDCHAR
STARTCHAR 089
ENCODING 89
SWIDTH 648 0
DWIDTH 9 0
BBX 0 0 0 0
BITMAP
ENDCHAR
STARTCHAR 090
ENCODING 90
SWIDTH 648 0
DWIDTH 9 0
BBX 0 0 0 0
BITMAP
ENDCHAR
STARTCHAR 091
ENCODING 91
SWIDTH 648 0
DWIDTH 9 0
BBX 0 0 0 0
BITMAP
ENDCHAR
STARTCHAR 092
ENCODING 92
SWIDTH 648 0
DWIDTH 9 0
BBX 0 0 0 0
BITMAP
ENDCHAR
STARTCHAR 093
ENCODING 93
SWIDTH 648 0
DWIDTH 9 0
BBX 0 0 0 0
BITMAP
ENDCHAR
STARTCHAR 094
ENCODING 94
SWIDTH 648 0
DWIDTH 9 0
BBX 0 0 0 0
BITMAP
ENDCHAR
STARTCHAR 095
ENCODING 95
SWIDTH 648 0
DWIDTH 9 0
BBX 0 0 0 0
BITMAP
ENDCHAR
STARTCHAR 096
ENCODING 96
SWIDTH 648 0
DWIDTH 9 0
BBX 0 0 0 0
BITMAP
ENDCHAR
STARTCHAR 097
ENCODING 97
SWIDTH 648 0
DWIDTH 9 0
BBX 0 0 0 0
BITMAP
ENDCHAR
STARTCHAR 098
ENCODING 98
SWIDTH 648 0
DWIDTH 9 0
BBX 0 0 0 0
BITMAP
ENDCHAR
STARTCHAR 099
ENCODING 99
SWIDTH 648 0
DWIDTH 9 0
BBX 0 0 0 0
BITMAP
ENDCHAR
STARTCHAR 100
ENCODING 100
SWIDTH 648 0
DWIDTH 9 0
BBX 0 0 0 0
BITMAP
ENDCHAR
STARTCHAR 101
ENCODING 101
SWIDTH 648 0
DWIDTH 9 0
BBX 0 0 0 0
BITMAP
ENDCHAR
STARTCHAR 102
ENCODING 102
SWIDTH 648 0
DWIDTH 9 0
BBX 0 0 0 0
BITMAP
ENDCHAR
STARTCHAR 103
ENCODING 103
SWIDTH 648 0
DWIDTH 9 0
BBX 0 0 0 0
BITMAP
ENDCHAR
STARTCHAR 104
ENCODING 104
SWIDTH 648 0
DWIDTH 9 0
BBX 0 0 0 0
BITMAP
ENDCHAR
STARTCHAR 105
ENCODING 105
SWIDTH 648 0
DWIDTH 9 0
BBX 0 0 0 0
BITMAP
ENDCHAR
STARTCHAR 106
ENCODING 106
SWIDTH 648 0
DWIDTH 9 0
BBX 0 0 0 0
BITMAP
ENDCHAR
STARTCHAR 107
ENCODING 107
SWIDTH 648 0
DWIDTH 9 0
BBX 0 0 0 0
BITMAP
ENDCHAR
STARTCHAR 108
ENCODING 108
SWIDTH 648 0
DWIDTH 9 0
BBX 0 0 0 0
BITMAP
ENDCHAR
STARTCHAR 109
ENCODING 109
SWIDTH 648 0
DWIDTH 9 0
BBX 0 0 0 0
BITMAP
ENDCHAR
STARTCHAR 110
ENCODING 110
SWIDTH 648 0
DWIDTH 9 0
BBX 0 0 0 0
BITMAP
ENDCHAR
STARTCHAR 111
ENCODING 111
SWIDTH 648 0
DWIDTH 9 0
BBX 0 0 0 0
BITMAP
ENDCHAR
STARTCHAR 112
ENCODING 112
SWIDTH 648 0
DWIDTH 9 0
BBX 0 0 0 0
BITMAP
ENDCHAR
STARTCHAR 113
ENCODING 113
SWIDTH 648 0
DWIDTH 9 0
BBX 0 0 0 0
BITMAP
ENDCHAR
STARTCHAR 114
ENCODING 114
SWIDTH 648 0
DWIDTH 9 0
BBX 0 0 0 0
BITMAP
ENDCHAR
STARTCHAR 115
ENCODING 115
SWIDTH 648 0
DWIDTH 9 0
BBX 0 0 0 0
BITMAP
ENDCHAR
STARTCHAR 116
ENCODING 116
SWIDTH 648 0
DWIDTH 9 0
BBX 0 0 0 0
BITMAP
ENDCHAR
STARTCHAR 117
ENCODING 117
SWIDTH 648 0
DWIDTH 9 0
BBX 0 0 0 0
BITMAP
ENDCHAR
STARTCHAR 118
ENCODING 118
SWIDTH 648 0
DWIDTH 9 0
BBX 0 0 0 0
BITMAP
ENDCHAR
STARTCHAR 119
ENCODING 119
SWIDTH 648 0
DWIDTH 9 0
BBX 0 0 0 0
BITMAP
ENDCHAR
STARTCHAR 120
ENCODING 120
SWIDTH 648 0
DWIDTH 9 0
BBX 0 0 0 0
BITMAP
ENDCHAR
STARTCHAR 121
ENCODING 121
SWIDTH 648 0
DWIDTH 9 0
BBX 0 0 0 0
BITMAP
ENDCHAR
STARTCHAR 122
ENCODING 122
SWIDTH 648 0
DWIDTH 9 0
BBX 0 0 0 0
BITMAP
ENDCHAR
STARTCHAR 123
ENCODING 123
SWIDTH 648 0
DWIDTH 9 0
BBX 0 0 0 0
BITMAP
ENDCHAR
STARTCHAR 124
ENCODING 124
SWIDTH 648 0
DWIDTH 9 0
BBX 0 0 0 0
BITMAP
ENDCHAR
STARTCHAR 125
ENCODING 125
SWIDTH 648 0
DWIDTH 9 0
BBX 0 0 0 0
BITMAP
ENDCHAR
STARTCHAR 126
ENCODING 126
SWIDTH 648 0
DWIDTH 9 0
BBX 0 0 0 0
BITMAP
ENDCHAR
STARTCHAR 127
ENCODING 127
SWIDTH 648 0
DWIDTH 9 0
BBX 0 0 0 0
BITMAP
ENDCHAR
ENDFONT
