STARTFONT 2.1
COMMENT Exported by Fony v1.3.6
FONT wind_logo
SIZE 20 96 96
FONTBOUNDINGBOX 20 19 0 0
STARTPROPERTIES 6
COPYRIGHT ""
RESOLUTION_X 96
RESOLUTION_Y 96
FONT_ASCENT 20
FONT_DESCENT 0
DEFAULT_CHAR 0
ENDPROPERTIES
CHARS 1
STARTCHAR 040
ENCODING 40
SWIDTH 1440 0
DWIDTH 20 0
BBX 20 20 0 0
BITMAP
038000
07C000
0EE000
0C63C0
00E7E0
3FCE70
7F8C30
000C30
000070
FFFFE0
FFFFC0
000000
000000
7FF800
3FFC00
000E00
00C600
00EE00
007C00
003800
ENDCHAR
ENDFONT
